<mxfile host="65bd71144e">
    <diagram id="PuGUkf0bcmuMFTp6DP8q" name="Page-1">
        <mxGraphModel dx="1458" dy="1033" grid="1" gridSize="10" guides="1" tooltips="1" connect="1" arrows="1" fold="1" page="1" pageScale="1" pageWidth="850" pageHeight="1100" math="0" shadow="0">
            <root>
                <mxCell id="0"/>
                <mxCell id="1" parent="0"/>
                <mxCell id="2" value="User will get &lt;br&gt;&quot;HI Whizlabs, I am a&lt;br&gt;public page&quot;&lt;br&gt;message as result" style="text;html=1;align=center;verticalAlign=middle;resizable=0;points=[];autosize=1;strokeColor=none;fillColor=#000033;" vertex="1" parent="1">
                    <mxGeometry x="150" y="720" width="130" height="70" as="geometry"/>
                </mxCell>
                <mxCell id="3" value="AWS ELASTIC IP AND EC2 INSTANCE" style="text;html=1;align=center;verticalAlign=middle;resizable=0;points=[];autosize=1;strokeColor=none;fillColor=none;labelBackgroundColor=none;fontFamily=Comic Sans MS;fontColor=#FF9933;fontSize=30;" vertex="1" parent="1">
                    <mxGeometry x="115" y="120" width="590" height="50" as="geometry"/>
                </mxCell>
                <mxCell id="5" value="Allocating Elastic IP and Associating it to EC2 Instance" style="text;html=1;align=center;verticalAlign=middle;resizable=0;points=[];autosize=1;strokeColor=none;fillColor=none;fontSize=20;fontFamily=Comic Sans MS;fontColor=#FFFFFF;" vertex="1" parent="1">
                    <mxGeometry x="150" y="180" width="540" height="40" as="geometry"/>
                </mxCell>
                <mxCell id="6" value="" style="outlineConnect=0;fontColor=#FF9933;gradientColor=none;fillColor=#FF9933;strokeColor=none;dashed=0;verticalLabelPosition=bottom;verticalAlign=top;align=center;html=1;fontSize=12;fontStyle=0;aspect=fixed;pointerEvents=1;shape=mxgraph.aws4.user;labelBackgroundColor=default;fontFamily=Comic Sans MS;shadow=0;" vertex="1" parent="1">
                    <mxGeometry x="440" y="720" width="78" height="78" as="geometry"/>
                </mxCell>
                <mxCell id="7" value="&lt;font color=&quot;#ff9933&quot;&gt;AWS Cloud&lt;/font&gt;" style="points=[[0,0],[0.25,0],[0.5,0],[0.75,0],[1,0],[1,0.25],[1,0.5],[1,0.75],[1,1],[0.75,1],[0.5,1],[0.25,1],[0,1],[0,0.75],[0,0.5],[0,0.25]];outlineConnect=0;gradientColor=none;html=1;whiteSpace=wrap;fontSize=12;fontStyle=0;container=1;pointerEvents=0;collapsible=0;recursiveResize=0;shape=mxgraph.aws4.group;grIcon=mxgraph.aws4.group_aws_cloud;strokeColor=#FF9933;fillColor=none;verticalAlign=top;align=left;spacingLeft=30;fontColor=#232F3E;dashed=0;labelBackgroundColor=default;fontFamily=Comic Sans MS;" vertex="1" parent="1">
                    <mxGeometry x="360" y="300" width="260" height="270" as="geometry"/>
                </mxCell>
                <mxCell id="8" value="VPC" style="points=[[0,0],[0.25,0],[0.5,0],[0.75,0],[1,0],[1,0.25],[1,0.5],[1,0.75],[1,1],[0.75,1],[0.5,1],[0.25,1],[0,1],[0,0.75],[0,0.5],[0,0.25]];outlineConnect=0;gradientColor=none;html=1;whiteSpace=wrap;fontSize=12;fontStyle=0;container=1;pointerEvents=0;collapsible=0;recursiveResize=0;shape=mxgraph.aws4.group;grIcon=mxgraph.aws4.group_vpc;strokeColor=#248814;fillColor=none;verticalAlign=top;align=left;spacingLeft=30;fontColor=#AAB7B8;dashed=0;shadow=0;labelBackgroundColor=default;sketch=0;fontFamily=Comic Sans MS;" vertex="1" parent="7">
                    <mxGeometry x="20" y="50" width="215" height="190" as="geometry"/>
                </mxCell>
                <mxCell id="10" value="" style="shape=ext;double=1;rounded=0;whiteSpace=wrap;html=1;shadow=0;labelBackgroundColor=default;sketch=0;fontFamily=Comic Sans MS;fontSize=20;fontColor=#FF9933;fillColor=none;strokeColor=#FF9933;strokeWidth=1;" vertex="1" parent="8">
                    <mxGeometry x="37.5" y="45" width="140" height="115" as="geometry"/>
                </mxCell>
                <mxCell id="11" value="" style="sketch=0;points=[[0,0,0],[0.25,0,0],[0.5,0,0],[0.75,0,0],[1,0,0],[0,1,0],[0.25,1,0],[0.5,1,0],[0.75,1,0],[1,1,0],[0,0.25,0],[0,0.5,0],[0,0.75,0],[1,0.25,0],[1,0.5,0],[1,0.75,0]];outlineConnect=0;fontColor=#232F3E;gradientColor=#F78E04;gradientDirection=north;fillColor=#D05C17;strokeColor=#ffffff;dashed=0;verticalLabelPosition=bottom;verticalAlign=top;align=center;html=1;fontSize=12;fontStyle=0;aspect=fixed;shape=mxgraph.aws4.resourceIcon;resIcon=mxgraph.aws4.ec2;shadow=0;labelBackgroundColor=default;strokeWidth=1;fontFamily=Comic Sans MS;" vertex="1" parent="8">
                    <mxGeometry x="50" y="78.5" width="48" height="48" as="geometry"/>
                </mxCell>
                <mxCell id="12" value="" style="outlineConnect=0;dashed=0;verticalLabelPosition=bottom;verticalAlign=top;align=center;html=1;shape=mxgraph.aws3.elastic_ip;fillColor=#F58534;gradientColor=none;shadow=0;labelBackgroundColor=default;sketch=0;strokeColor=#FF9933;strokeWidth=1;fontFamily=Comic Sans MS;fontSize=20;fontColor=#FF9933;" vertex="1" parent="8">
                    <mxGeometry x="120" y="96" width="39" height="13" as="geometry"/>
                </mxCell>
                <mxCell id="16" value="EC2" style="text;html=1;align=center;verticalAlign=middle;resizable=0;points=[];autosize=1;strokeColor=none;fillColor=none;fontSize=12;fontFamily=Comic Sans MS;fontColor=#FFFFFF;" vertex="1" parent="8">
                    <mxGeometry x="45" y="126.5" width="50" height="30" as="geometry"/>
                </mxCell>
                <mxCell id="17" value="&lt;font style=&quot;font-size: 8px;&quot;&gt;Elastic IP Address&lt;/font&gt;" style="text;html=1;align=center;verticalAlign=middle;resizable=0;points=[];autosize=1;strokeColor=none;fillColor=none;fontSize=12;fontFamily=Comic Sans MS;fontColor=#FFFFFF;" vertex="1" parent="8">
                    <mxGeometry x="94.5" y="109" width="90" height="30" as="geometry"/>
                </mxCell>
                <mxCell id="13" value="" style="aspect=fixed;perimeter=ellipsePerimeter;html=1;align=center;shadow=0;dashed=0;spacingTop=3;image;image=img/lib/active_directory/internet_globe.svg;labelBackgroundColor=default;sketch=0;strokeColor=#FF9933;strokeWidth=1;fontFamily=Comic Sans MS;fontSize=20;fontColor=#FF9933;fillColor=#FF9933;" vertex="1" parent="1">
                    <mxGeometry x="454" y="610" width="50" height="50" as="geometry"/>
                </mxCell>
                <mxCell id="14" value="&lt;font style=&quot;font-size: 12px;&quot; color=&quot;#ffffff&quot;&gt;Internet&lt;/font&gt;" style="text;html=1;align=center;verticalAlign=middle;resizable=0;points=[];autosize=1;strokeColor=none;fillColor=none;fontSize=20;fontFamily=Comic Sans MS;fontColor=#FF9933;" vertex="1" parent="1">
                    <mxGeometry x="445" y="650" width="70" height="40" as="geometry"/>
                </mxCell>
                <mxCell id="15" value="USER" style="text;html=1;align=center;verticalAlign=middle;resizable=0;points=[];autosize=1;strokeColor=none;fillColor=none;fontSize=12;fontFamily=Comic Sans MS;fontColor=#FFFFFF;" vertex="1" parent="1">
                    <mxGeometry x="450" y="798" width="60" height="30" as="geometry"/>
                </mxCell>
                <mxCell id="18" style="edgeStyle=none;html=1;fontFamily=Comic Sans MS;fontSize=8;fontColor=#FF9933;strokeColor=#FF9933;rounded=0;" edge="1" parent="1" source="11" target="6">
                    <mxGeometry relative="1" as="geometry">
                        <mxPoint x="320" y="750" as="targetPoint"/>
                        <Array as="points">
                            <mxPoint x="300" y="453"/>
                            <mxPoint x="300" y="760"/>
                        </Array>
                    </mxGeometry>
                </mxCell>
            </root>
        </mxGraphModel>
    </diagram>
</mxfile>